<svg xmlns="http://www.w3.org/2000/svg" viewBox="0 0 373 291.25"><defs><style>.a{fill:#c630c6;}.b{fill:#2e1a54;}.c,.d,.f{fill:none;}.c{stroke:#21be63;}.c,.f{stroke-miterlimit:10;}.d,.f{stroke:#fff;}.d{stroke-linecap:round;stroke-linejoin:round;stroke-width:3px;}.e{fill:#21be63;}.f{stroke-width:2px;}</style></defs><title>course-free</title><rect class="a" y="59.25" width="373" height="232" rx="40"/><rect class="b" x="155.25" y="11" width="164" height="240" rx="25.019"/><rect class="c" x="165.75" y="0.5" width="164" height="240" rx="25.019"/><circle class="d" cx="237.25" cy="195.5" r="15"/><rect class="d" x="181.25" y="92.5" width="112" height="30" rx="15" transform="translate(129.75 344.75) rotate(-90)"/><path class="e" d="M155.792,201.584q0,20.3379-12.3184,30.7959-12.3179,10.4619-32.2627,10.4609h-.1953l-2.9326,23.0723q-14.4726-.5874-14.47-1.3692l2.7373-22.6806a220.2582,220.2582,0,0,1-24.2451-4.1065l-3.9112-.7822,2.542-20.335q15.4438,2.1534,28.5479,2.9327l4.3017-34.0225q-20.1416-6.0572-28.5478-14.6641-8.41-8.6015-8.4072-23.4638,0-19.3579,11.7314-28.8408t32.2627-9.4834h2.542l3.5195-26.9825h14.4688l-3.52,28.1563q12.1217,1.1733,22.29,3.1279l3.3242.7822-2.15,20.7266q-14.2764-1.563-26.3965-2.3467L120.792,164.042q20.3336,6.4527,27.668,14.1758Q155.7916,185.9448,155.792,201.584ZM92.6357,145.6621a10.3161,10.3161,0,0,0,2.9327,7.626q2.934,2.9327,11.3408,6.0615l3.3242-27.1787Q92.6363,132.9547,92.6357,145.6621Zm37.15,57.6817a11.3368,11.3368,0,0,0-2.64-7.7237q-2.64-3.0293-9.4824-5.7685l-3.7159,29.916Q129.7861,218.0082,129.7861,203.3438Z"/><circle class="f" cx="110.5" cy="176.75" r="77.5"/><line class="f" x1="165" y1="231.25" x2="56" y2="122.25"/></svg>