<svg xmlns="http://www.w3.org/2000/svg" xmlns:xlink="http://www.w3.org/1999/xlink" viewBox="0 0 1564.1977 521.3429"><defs><style>.a{fill:#c630c6;}.b{fill:#2e1a54;}.c,.d,.f,.h,.k,.m{fill:none;}.c{stroke:#21be63;}.c,.f,.k{stroke-miterlimit:10;}.d,.f,.h{stroke:#fff;}.d,.h,.m{stroke-linecap:round;stroke-linejoin:round;}.d,.m{stroke-width:3px;}.e{fill:#21be63;}.f{stroke-width:2px;}.g{fill:url(#a);}.i{fill:url(#b);}.j{fill:url(#c);}.k{stroke:#2e1a54;stroke-width:5px;}.l{fill:url(#d);}.m{stroke:#292d30;}.n{fill:#292d30;}</style><linearGradient id="a" x1="-10755.0347" y1="3524.0098" x2="-10512.8175" y2="3524.0098" gradientTransform="translate(-8208.9715 6083.2365) rotate(167.8567)" gradientUnits="userSpaceOnUse"><stop offset="0" stop-color="#f05cf2"/><stop offset="0.2941" stop-color="#c448f2"/><stop offset="0.6025" stop-color="#9d36f2"/><stop offset="0.8487" stop-color="#852bf2"/><stop offset="1" stop-color="#7c27f2"/></linearGradient><radialGradient id="b" cx="4164.0984" cy="1981.582" r="58.6012" gradientTransform="matrix(-0.6398, 0.7685, -0.7685, -0.6398, 5393.355, -1658.7509)" gradientUnits="userSpaceOnUse"><stop offset="0.1036" stop-color="#efefef"/><stop offset="0.4927" stop-color="#ededed"/><stop offset="0.6694" stop-color="#e6e6e6"/><stop offset="0.8032" stop-color="#d9d9d9"/><stop offset="0.9147" stop-color="#c7c7c7"/><stop offset="1" stop-color="#b3b3b3"/></radialGradient><radialGradient id="c" cx="-12387.0743" cy="2072.3069" r="64.6073" gradientTransform="matrix(0.4312, -0.9022, -0.9022, -0.4312, 8452.0344, -10028.2499)" xlink:href="#b"/><radialGradient id="d" cx="1555.9455" cy="-651.4735" r="151.9212" gradientTransform="translate(-246.2811 233.8707) rotate(17.3936) scale(1 0.8285)" gradientUnits="userSpaceOnUse"><stop offset="0" stop-color="#efefef"/><stop offset="0.3265" stop-color="#ededed"/><stop offset="0.4748" stop-color="#e6e6e6"/><stop offset="0.5871" stop-color="#d9d9d9"/><stop offset="0.6813" stop-color="#c7c7c7"/><stop offset="0.7641" stop-color="#afafaf"/><stop offset="0.839" stop-color="#929292"/><stop offset="0.9078" stop-color="#6f6f6f"/><stop offset="0.9701" stop-color="#494949"/><stop offset="1" stop-color="#333"/></radialGradient></defs><title>course-free-background</title><rect class="a" x="791.5" y="143.5" width="373" height="232" rx="40"/><rect class="b" x="946.75" y="95.25" width="164" height="240" rx="25.019"/><rect class="c" x="957.25" y="84.75" width="164" height="240" rx="25.019"/><circle class="d" cx="1028.75" cy="279.75" r="15"/><rect class="d" x="972.75" y="176.75" width="112" height="30" rx="15" transform="translate(837 1220.5) rotate(-90)"/><path class="e" d="M947.292,285.834q0,20.3379-12.3184,30.7959-12.3179,10.4619-32.2627,10.4609h-.1953l-2.9326,23.0723q-14.4726-.5874-14.47-1.3692l2.7373-22.6806a220.2582,220.2582,0,0,1-24.2451-4.1065l-3.9112-.7822,2.542-20.335q15.4438,2.1534,28.5479,2.9327L895.0859,269.8q-20.1416-6.0571-28.5478-14.6641-8.41-8.6015-8.4072-23.4638,0-19.3579,11.7314-28.8408t32.2627-9.4834h2.542l3.5195-26.9825h14.4688l-3.52,28.1563q12.1217,1.1733,22.29,3.1279l3.3242.7822-2.15,20.7266q-14.2764-1.563-26.3965-2.3467L912.292,248.292q20.3335,6.4527,27.668,14.1758Q947.2916,270.1948,947.292,285.834Zm-63.1563-55.9219a10.3161,10.3161,0,0,0,2.9327,7.626q2.934,2.9327,11.3408,6.0615l3.3242-27.1787Q884.1363,217.2047,884.1357,229.9121Zm37.15,57.6817a11.3368,11.3368,0,0,0-2.64-7.7237q-2.64-3.0292-9.4824-5.7685l-3.7159,29.916Q921.2861,302.2582,921.2861,287.5938Z"/><circle class="f" cx="902" cy="261" r="77.5"/><line class="f" x1="956.5" y1="315.5" x2="847.5" y2="206.5"/><path class="g" d="M1316.9994,378.6775c-10.209-47.4461,37.737-82.3816,103.1269-96.4517s123.4616-1.9464,133.6707,45.5S1536.6976,506.02,1471.3078,520.09,1327.2085,426.1236,1316.9994,378.6775Z"/><path class="h" d="M1324.7333,363.8875c-10.0622-47.4775,37.9917-82.2645,103.4248-96.1322s123.467-1.5645,133.5292,45.913-17.6509,178.24-83.084,192.1079S1334.7955,411.3649,1324.7333,363.8875Z"/><path class="i" d="M1233.1714,290.3108c-10.3554-8.62-42.9217-12.9721-51.5422-2.6167s5.7668,36.5445,16.1222,45.1651a24.3967,24.3967,0,0,0,34.3589-3.1414C1240.7308,319.3624,1243.5268,298.9313,1233.1714,290.3108Z"/><path class="j" d="M1269.6431,273.6285c-13.4028-6.4058-32.753-37.0274-26.3472-50.43s39.2647-11.045,52.6674-4.6392a26.8972,26.8972,0,0,1,12.6691,35.8666C1302.2266,267.8285,1283.0458,280.0343,1269.6431,273.6285Z"/><path class="k" d="M1319.5,459.5H42.5a40,40,0,0,1-40-40V72.5a40,40,0,0,1,40-40h1514"/><path class="l" d="M1475.2827,134.3308c2.3868,45.253-30.4275,120.5741-75.6806,122.9609s-85.8085-69.0646-88.1953-114.3177a82.0518,82.0518,0,1,1,163.8759-8.6432Z"/><path class="m" d="M1342.2715,159.2877a14.5511,14.5511,0,1,1,29.0618-1.5328"/><path class="m" d="M1419.77,155.2a14.551,14.551,0,1,1,29.0617-1.5328"/><circle class="n" cx="1356.5214" cy="153.1933" r="8.7306"/><circle class="n" cx="1434.0194" cy="149.1059" r="8.7306"/><path class="m" d="M1427.7145,186.119c.4233,8.0252-14.0559-2.6258-31.1763-1.7228s-30.3988,13.0179-30.8221,4.9928"/><path class="h" d="M1483.39,125.7721c2.3867,45.2531-30.4276,120.5742-75.6806,122.961s-85.8086-69.0647-88.1953-114.3177a82.0518,82.0518,0,0,1,163.8759-8.6433Z"/><circle class="n" cx="1375.0433" cy="57.4517" r="48.7225"/><circle class="n" cx="1420.5374" cy="80.87" r="34.669"/><path class="h" d="M1429.8583,38.0275A48.7135,48.7135,0,1,0,1400.8942,94.32a34.6656,34.6656,0,1,0,28.9641-56.2922Z"/></svg>