<svg xmlns="http://www.w3.org/2000/svg" viewBox="0 0 18.1549 31.8254"><defs><style>.a{fill:#fff;}</style></defs><title>facebook-icon</title><path class="a" d="M12.8,10.6964h.3522c1.0246,0,2.0494-.0077,3.0739.0057a2.6353,2.6353,0,0,1,.7215.1239,1.58,1.58,0,0,1,1.0169,1.4067q-.0208,2.4839.001,4.9679a1.5909,1.5909,0,0,1-1.0417,1.4945,1.4952,1.4952,0,0,1-.4817.0794c-1.0971.007-2.1942.004-3.2913.0043h-.3153a.6346.6346,0,0,0-.0339.3386q-.0028,5.48-.0047,10.9608a2.2341,2.2341,0,0,1-.0756.6391,1.5211,1.5211,0,0,1-1.4024,1.1057q-2.6548.0036-5.31-.0018a1.4008,1.4008,0,0,1-1.126-.5974,1.7273,1.7273,0,0,1-.3514-1.1194q.0039-5.48.0015-10.9608v-.3648H4.24c-.89,0-1.7805-.0133-2.67.0039a1.62,1.62,0,0,1-1.5214-1.325,6.4221,6.4221,0,0,1-.047-.6433c-.0006-1.4386-.0045-2.8773.0026-4.316a1.8824,1.8824,0,0,1,.2679-1.0548A1.5771,1.5771,0,0,1,1.2828,10.75a3.1694,3.1694,0,0,1,.7364-.0534q1.0867-.002,2.1735,0h.3248c.0062-.0975.0155-.1771.0157-.2566.0012-.58-.0075-1.1594.003-1.7388.01-.525.0085-1.0532.0671-1.5737a8.963,8.963,0,0,1,.7249-2.7464,8.0383,8.0383,0,0,1,.9836-1.63A7.263,7.263,0,0,1,7.6963,1.4381a7.5745,7.5745,0,0,1,2.5755-1.21A5.7357,5.7357,0,0,1,11.8485,0C13.494.0146,15.14.0113,16.7854.0019A1.286,1.286,0,0,1,17.887.6331a1.5182,1.5182,0,0,1,.2643.9023c-.0107,1.511-.0253,3.0226.0034,4.5332A1.62,1.62,0,0,1,16.54,7.6608c-.9416-.0145-1.8837,0-2.8255-.003a2.191,2.191,0,0,0-.63.1213.2736.2736,0,0,0-.2223.26c-.0129.1524-.0552.3035-.0569.4555-.007.652-.0038,1.3041-.0044,1.9562ZM1.9446,16.8472h.24c.9524,0,1.9049-.0027,2.8573.0024.1729.0009.3456.0471.5185.048a1.0508,1.0508,0,0,1,.9067,1.0682,2.3432,2.3432,0,0,0-.0015.2793q0,5.6835.0018,11.3672c0,.1084-.0335.2254.0274.3174h4.3733V29.577q0-5.5127,0-11.0255c0-.2174-.0027-.4349.0012-.6522a1.0659,1.0659,0,0,1,.7254-.9753,2.2466,2.2466,0,0,1,.5772-.0736c1.18-.0065,2.36-.0029,3.5406-.0038.1,0,.2-.0085.3166-.0138V14.2973c0-.28.0064-.5593-.0017-.8386A4.1386,4.1386,0,0,0,16,12.6281h-.3272c-1.2216,0-2.4434-.0126-3.6648.0051a1.1078,1.1078,0,0,1-1.1438-1.1386c.0175-.9521.0076-1.9048.004-2.8572a4.2824,4.2824,0,0,1,.1256-1.0352,2.2536,2.2536,0,0,1,1.74-1.7329,4.6572,4.6572,0,0,1,1.2192-.1462c.6728.0094,1.3458.0032,2.0187.0015.0786,0,.1572-.0136.2281-.02V1.9c-.5069-.0259-.9987-.0743-1.49-.0706a19.1476,19.1476,0,0,0-2.29.0426c-.2941.0375-.5928.02-.8912.0622a6.5244,6.5244,0,0,0-1.8477.5431A5.3107,5.3107,0,0,0,7.9619,3.766,5.23,5.23,0,0,0,7.1081,5.08,8.0992,8.0992,0,0,0,6.75,6.0917a6.37,6.37,0,0,0-.2761,1.7845c-.0195,1.17-.0407,2.3409.0045,3.509A1.19,1.19,0,0,1,5.2388,12.64c-1.0022-.0449-2.0079-.0115-3.0121-.0115H1.9446Z"/></svg>