<svg xmlns="http://www.w3.org/2000/svg" viewBox="0 0 242.6909 103.0622"><defs><style>.a{fill:#fff;}</style></defs><title>logo</title><path class="a" d="M103.2978,33.6532H93.5736V46.5264H89.3194V8.2934h13.9784q6.2429,0,9.2267,3.0386t2.9836,9.2821Q115.5081,33.6539,103.2978,33.6532Zm-9.7242-3.7571h9.6691q7.9,0,7.9007-9.282,0-4.4195-1.8785-6.4918T103.2427,12.05H93.5736Z"/><path class="a" d="M121.3638,46.5264V18.9013h4.0885v3.757a26.9086,26.9086,0,0,1,10.1107-4.3646v4.1989a29.85,29.85,0,0,0-4.8343,1.3811,32.17,32.17,0,0,0-3.84,1.6578l-1.3814.7182V46.5264Z"/><path class="a" d="M138.7123,32.6586q0-7.5688,2.7072-10.9395t9.1438-3.37q6.4359,0,9.1163,3.37t2.68,10.9395q0,7.57-2.5415,10.9949t-9.282,3.4254q-6.7414,0-9.2821-3.4254T138.7123,32.6586Zm4.2542-.0829q0,6.05,1.464,8.481t6.1328,2.4308q4.6685,0,6.1053-2.4032t1.4364-8.481q0-6.0769-1.6022-8.37-1.6032-2.2918-5.94-2.2929t-5.967,2.2929Q142.9663,26.5262,142.9665,32.5757Z"/><path class="a" d="M174.4038,22.4926V46.5264H170.26V22.4926h-3.4807V18.9013H170.26V16.4151q0-5.8557,1.6577-7.9838,1.6575-2.1261,5.8011-2.1269l5.58.3866-.0553,3.4256q-3.095-.11-5.1107-.1106a3.1564,3.1564,0,0,0-2.8729,1.326q-.8576,1.3263-.8564,5.1384v2.4309h8.0111v3.5913Z"/><path class="a" d="M205.6758,43.101l1.6022-.166.11,3.26a79.427,79.427,0,0,1-10.7738.884q-5.9669,0-8.4532-3.4532T185.6753,32.88q0-14.53,11.5471-14.5309,5.58,0,8.3428,3.1217t2.7625,9.8068l-.2211,3.1492H189.8742q0,4.5867,1.6575,6.7959t5.7736,2.21Q201.4206,43.4324,205.6758,43.101Zm-1.492-11.9895q0-5.0825-1.63-7.1824T197.25,21.83a6.7981,6.7981,0,0,0-5.5249,2.21q-1.8516,2.21-1.9061,7.0718Z"/><path class="a" d="M112.4141,95.5205a51.7,51.7,0,0,1-10.2213,1.16,18.177,18.177,0,0,1-7.3207-1.2431A9.165,9.165,0,0,1,90.5626,91.57a17.9222,17.9222,0,0,1-2.0994-6.0222,51.67,51.67,0,0,1-.58-8.4809,52.7254,52.7254,0,0,1,.58-8.5361,18.2552,18.2552,0,0,1,2.0994-6.1053,9.0006,9.0006,0,0,1,4.2818-3.8674,18.0117,18.0117,0,0,1,7.1827-1.2154,53.06,53.06,0,0,1,10.387,1.2154l-.1657,3.5913a57.3694,57.3694,0,0,0-9.945-.9946q-6.0786,0-8.0388,3.6189-1.962,3.6195-1.9617,12.3485a54.4386,54.4386,0,0,0,.3593,7.0167,15.3717,15.3717,0,0,0,1.4089,4.779,6.22,6.22,0,0,0,3.0663,3.0388,14.9083,14.9083,0,0,0,5.9118.9118,50.9037,50.9037,0,0,0,9.1992-.9946Z"/><path class="a" d="M135.288,68.5032h4.1436V96.1283H135.288V94.1945a15.8245,15.8245,0,0,1-8.177,2.4863q-5.6357,0-7.4866-2.9282t-1.8508-10.8291v-14.42h4.1438V82.8684q0,6.0227,1.05,8.0664t4.7514,2.0443a13.6847,13.6847,0,0,0,3.7018-.525,16.8682,16.8682,0,0,0,2.8729-1.0221l.9948-.4972Z"/><path class="a" d="M166.1721,92.7029l1.6022-.1659.11,3.26a79.42,79.42,0,0,1-10.7736.8839q-5.9668,0-8.4534-3.4531t-2.4861-10.7461q0-14.53,11.5473-14.5309,5.58,0,8.3428,3.1217t2.7623,9.8068l-.2208,3.1493H150.3705q0,4.5867,1.6577,6.7959t5.7734,2.21Q161.9172,93.0344,166.1721,92.7029ZM164.68,80.7135q0-5.0826-1.63-7.1825t-5.3041-2.0993a6.7979,6.7979,0,0,0-5.525,2.21q-1.8519,2.21-1.9061,7.0718Z"/><path class="a" d="M175.6192,96.1283V56.4589h4.1439V96.1283Z"/><path class="a" d="M188.3813,96.1283V56.4589h4.1439V96.1283Z"/><path class="a" d="M220.3153,76.846V90.99q.1656,2.0447,3.2044,2.4311l-.1658,3.26q-4.3651,0-6.5748-2.21a24.3048,24.3048,0,0,1-9.945,2.21,7.5055,7.5055,0,0,1-5.8011-2.1546,8.8,8.8,0,0,1-1.989-6.1882q0-4.0323,2.0443-5.9392t6.4089-2.3482l8.6743-.8289V76.846a5.5631,5.5631,0,0,0-1.2154-4.0332,4.4827,4.4827,0,0,0-3.315-1.2154,79.5558,79.5558,0,0,0-9.1717.5525l-1.7126.1657-.1659-3.1492a55.7107,55.7107,0,0,1,10.7738-1.2157q4.6955,0,6.8233,2.1549Q220.3141,72.26,220.3153,76.846Zm-17.017,11.271q0,5.0839,4.1989,5.0831a22.3442,22.3442,0,0,0,7.4035-1.2707l1.2708-.4421V82.371l-8.1771.7735a5.3233,5.3233,0,0,0-3.5911,1.4365A5.0834,5.0834,0,0,0,203.2983,88.117Z"/><path class="a" d="M228.4917,96.1283V68.5032H232.58V72.26a26.91,26.91,0,0,1,10.1107-4.3647v4.199a29.8459,29.8459,0,0,0-4.8343,1.3811,32.1448,32.1448,0,0,0-3.84,1.6577l-1.3812.7182V96.1283Z"/><rect class="a" x="27.6411" y="15.6404" width="4.1617" height="79.9612" transform="translate(-30.6116 37.2648) rotate(-44.9594)"/><path class="a" d="M33.8619,41.5337a12.175,12.175,0,0,1-8.6352-3.5709h0L16.6661,29.402a12.2256,12.2256,0,0,1,0-17.27l8.5606-8.5607a12.2256,12.2256,0,0,1,17.27,0l8.5606,8.5607a12.2256,12.2256,0,0,1,0,17.27l-8.5606,8.5607A12.1747,12.1747,0,0,1,33.8619,41.5337ZM28.17,35.02a8.0591,8.0591,0,0,0,11.3846,0l8.5606-8.5606a8.0592,8.0592,0,0,0,0-11.3848L39.5542,6.5139a8.0593,8.0593,0,0,0-11.3846,0l-8.5607,8.5606a8.0594,8.0594,0,0,0,0,11.3848L28.17,35.02Z"/><path class="a" d="M33.8344,103.0622a12.1315,12.1315,0,0,1-8.635-3.5769l-8.5609-8.56a12.2263,12.2263,0,0,1,0-17.27l8.5609-8.5609,2.9429,2.9429-8.5609,8.5607a8.06,8.06,0,0,0,0,11.3847l8.5609,8.5605a8.05,8.05,0,0,0,11.3843,0l8.5607-8.5607L51.03,90.9247,42.47,99.4853A12.1319,12.1319,0,0,1,33.8344,103.0622Z"/></svg>