<svg xmlns="http://www.w3.org/2000/svg" viewBox="0 0 31.8777 31.8759"><defs><style>.a{fill:#fff;}</style></defs><title>instagram-icon</title><path class="a" d="M24.21,31.8759H7.655C7.63,31.86,7.6067,31.833,7.58,31.83a8.6554,8.6554,0,0,1-1.0624-.1935,8.5221,8.5221,0,0,1-4.2659-2.5582,9.4393,9.4393,0,0,1-1.008-1.3308A8.1269,8.1269,0,0,1,.333,25.685a4.4538,4.4538,0,0,1-.231-1.0238A2.3417,2.3417,0,0,0,0,24.221V7.6663c.0159-.0248.043-.0483.0461-.0747A8.2,8.2,0,0,1,.2406,6.5277,8.64,8.64,0,0,1,3.42,1.7342,8.4045,8.4045,0,0,1,5.7929.4712a8.6486,8.6486,0,0,1,1.59-.3947,6.1716,6.1716,0,0,1,.8634-.07q7.59-.0073,15.18-.0065A7.8149,7.8149,0,0,1,25.293.243a8.9193,8.9193,0,0,1,2.2938.9227,8.5971,8.5971,0,0,1,4.0094,5.2669,8.1977,8.1977,0,0,1,.2815,2.08q-.0063,7.4345,0,14.8688a8.5614,8.5614,0,0,1-.9872,3.8984,8.3874,8.3874,0,0,1-1.8175,2.3383,9.37,9.37,0,0,1-1.3321,1.0105,8.1682,8.1682,0,0,1-2.0649.914,4.5148,4.5148,0,0,1-1.0254.2314A2.39,2.39,0,0,0,24.21,31.8759ZM29.9852,15.96q0-3.3918,0-6.7835a12.9259,12.9259,0,0,0-.1108-1.5747A6.1289,6.1289,0,0,0,29.32,5.77a6.6163,6.6163,0,0,0-1.5616-2.1082,6.8716,6.8716,0,0,0-1.8686-1.21,7.1434,7.1434,0,0,0-2.9329-.5559Q16.796,1.88,10.6349,1.8944c-.776.0012-1.5518-.03-2.3291.0376A7.9926,7.9926,0,0,0,6.9,2.1364a6.6371,6.6371,0,0,0-2.8268,1.557A6.8268,6.8268,0,0,0,2.8115,5.2605a6.4679,6.4679,0,0,0-.8681,2.63c-.0516.5031-.0535,1.0121-.0611,1.5186-.01.6429-.0023,1.2861-.0023,1.9292,0,2.0641-.0113,4.1282.0031,6.1922.0145,2.0726-.0659,4.1462.0513,6.2178a5.4259,5.4259,0,0,0,.0927.83,6.756,6.756,0,0,0,1.2305,2.7206,6.89,6.89,0,0,0,2.2822,1.93,7.07,7.07,0,0,0,3.2589.764c1.2236.0185,2.4478.0042,3.6717.0042,1.8774,0,3.7548.0112,5.6321-.0031,1.8859-.0145,3.7728.0663,5.6576-.052a5.41,5.41,0,0,0,.799-.09,6.7632,6.7632,0,0,0,2.747-1.2464,6.8867,6.8867,0,0,0,1.9213-2.29,7.0042,7.0042,0,0,0,.7534-3.2613C29.9955,20.6893,29.9852,18.3243,29.9852,15.96Z"/><path class="a" d="M15.9315,24.6684a8.7287,8.7287,0,1,1,8.7334-8.7162A8.7458,8.7458,0,0,1,15.9315,24.6684Zm.0721-15.5349a6.7474,6.7474,0,0,0-4.8458,1.9648,6.6607,6.6607,0,0,0-2.0426,4.8382,6.432,6.432,0,0,0,.832,3.2684,7.02,7.02,0,0,0,2.65,2.6831,6.433,6.433,0,0,0,3.32.8728,6.6838,6.6838,0,0,0,4.78-1.96,6.5959,6.5959,0,0,0,2.05-4.8654,6.5719,6.5719,0,0,0-2.0626-4.86A6.67,6.67,0,0,0,16.0036,9.1335Z"/><path class="a" d="M24.8534,9.2962a2.59,2.59,0,1,1,2.5947-2.5708A2.6,2.6,0,0,1,24.8534,9.2962Zm.6591-2.5648a.63.63,0,0,0-.6718-.6793.6538.6538,0,0,0-.66.6383.6976.6976,0,0,0,.6864.6955A.6587.6587,0,0,0,25.5125,6.7314Z"/></svg>