<svg xmlns="http://www.w3.org/2000/svg" xmlns:xlink="http://www.w3.org/1999/xlink" viewBox="0 0 620.91 593.955"><defs><style>.a{fill:url(#a);}.b{fill:url(#b);}.c,.e,.i,.l,.m{fill:none;}.c,.i,.m{stroke:#fff;}.c,.e,.i{stroke-linecap:round;stroke-linejoin:round;}.d{fill:#2e1a54;}.e{stroke:#292d30;}.e,.i,.m{stroke-width:3px;}.f{fill:#292d30;}.g{fill:#34bf8c;opacity:0.22;}.h{opacity:0.54;}.j{fill:url(#c);}.k{fill:url(#d);}.l{stroke:#21be63;}.l,.m{stroke-miterlimit:10;}</style><radialGradient id="a" cx="185.7433" cy="140.2439" r="146.1371" gradientTransform="translate(0 -62.1701) scale(1 1.4433)" gradientUnits="userSpaceOnUse"><stop offset="0" stop-color="#efefef"/><stop offset="0.3119" stop-color="#ededed"/><stop offset="0.4558" stop-color="#e6e5e8"/><stop offset="0.5653" stop-color="#dbd9df"/><stop offset="0.6574" stop-color="#cac6d1"/><stop offset="0.7385" stop-color="#b5afc0"/><stop offset="0.8119" stop-color="#9a91ab"/><stop offset="0.8796" stop-color="#7b6f92"/><stop offset="0.9409" stop-color="#574875"/><stop offset="0.9983" stop-color="#2f1b55"/><stop offset="1" stop-color="#2e1a54"/></radialGradient><radialGradient id="b" cx="86.6625" cy="317.022" r="337.335" gradientUnits="userSpaceOnUse"><stop offset="0" stop-color="#fff"/><stop offset="0.0236" stop-color="#fcf5fc"/><stop offset="0.1754" stop-color="#ecbaec"/><stop offset="0.3217" stop-color="#de89de"/><stop offset="0.4588" stop-color="#d462d4"/><stop offset="0.5847" stop-color="#cc47cc"/><stop offset="0.6954" stop-color="#c836c8"/><stop offset="0.779" stop-color="#c630c6"/></radialGradient><radialGradient id="c" cx="-9641.0314" cy="629.4867" r="68.719" gradientTransform="matrix(0.6323, 0.7747, 0.7747, -0.6323, 6040.507, 8161.4855)" gradientUnits="userSpaceOnUse"><stop offset="0.1036" stop-color="#efefef"/><stop offset="0.4927" stop-color="#ededed"/><stop offset="0.6694" stop-color="#e6e6e6"/><stop offset="0.8032" stop-color="#d9d9d9"/><stop offset="0.9147" stop-color="#c7c7c7"/><stop offset="1" stop-color="#b3b3b3"/></radialGradient><radialGradient id="d" cx="-13678.8253" cy="572.1705" r="68.719" gradientTransform="translate(13684.1069)" xlink:href="#c"/></defs><title>oscar-ilustration</title><path class="a" d="M291.3764,116.5864c0,58.34-47.2935,152.9481-105.6331,152.9481S80.11,174.926,80.11,116.5864a105.6332,105.6332,0,0,1,211.2663,0Z"/><path class="b" d="M54.4875,409.48c0-52.4459,58.595-78.455,130.8756-78.455s130.8755,26.0091,130.8755,78.455S257.6436,593.955,185.3631,593.955,54.4875,461.9264,54.4875,409.48Z"/><path class="c" d="M65.1444,398.8235c0-52.4459,58.595-78.455,130.8756-78.455s130.8755,26.0091,130.8755,78.455S268.3005,583.2981,196.02,583.2981,65.1444,451.27,65.1444,398.8235Z"/><circle class="d" cx="238.2529" cy="252.4598" r="30.2194"/><circle class="d" cx="257.7433" cy="215.9694" r="21.7098"/><circle class="d" cx="113.7433" cy="215.9694" r="21.7098"/><circle class="d" cx="187.2015" cy="275.6613" r="33.5983"/><circle class="d" cx="135.2015" cy="253.2825" r="30.2194"/><path class="c" d="M270.4955,184.0067a21.7082,21.7082,0,0,0-28.0269,26.7612,30.22,30.22,0,0,0-28.7822,27.1548,33.5909,33.5909,0,0,0-42.9184.7925,30.2212,30.2212,0,0,0-31.0152-27.1363,21.7056,21.7056,0,1,0-24.6811,14.1958A30.2156,30.2156,0,0,0,159.1386,265.72a33.6024,33.6024,0,0,0,67.1357-.11,30.2164,30.2164,0,0,0,43.2837-40.37,21.7091,21.7091,0,0,0,.9375-41.2329Z"/><path class="e" d="M125.2243,146.0985a16.5052,16.5052,0,0,1,33.01,0"/><path class="e" d="M213.2519,146.0985a16.5052,16.5052,0,0,1,33.01,0"/><circle class="f" cx="141.7295" cy="140.0466" r="9.9031"/><circle class="f" cx="229.7571" cy="140.0466" r="9.9031"/><path class="e" d="M149.982,216.4023s35.428,14.3573,69.4247,1.9483"/><path class="c" d="M302.38,106.1332c0,58.34-47.2936,152.948-105.6332,152.948S91.1136,164.4727,91.1136,106.1332a105.6332,105.6332,0,1,1,211.2663,0Z"/><rect class="g" x="78.0098" y="110.7871" width="213.467" height="55.0173" rx="16.3172"/><path class="d" d="M291.275,126.192a17.9429,17.9429,0,0,0-17.753-15.4049H95.9645a17.943,17.943,0,0,0-17.753,15.4049Z"/><g class="h"><line class="i" x1="93.4146" y1="137.1954" x2="117.6222" y2="137.1954"/><line class="i" x1="127.5253" y1="137.1954" x2="133.027" y2="137.1954"/><line class="i" x1="142.38" y1="137.7456" x2="166.5876" y2="137.7456"/><line class="i" x1="176.4907" y1="137.7456" x2="181.9924" y2="137.7456"/><line class="i" x1="191.3453" y1="138.2958" x2="215.5529" y2="138.2958"/><line class="i" x1="225.4561" y1="138.2958" x2="230.9578" y2="138.2958"/><line class="i" x1="240.3107" y1="138.8459" x2="264.5183" y2="138.8459"/><line class="i" x1="274.4214" y1="138.8459" x2="279.9232" y2="138.8459"/></g><path class="j" d="M400.2631,313.5275c12.2406-9.9908,50.4772-14.7235,60.468-2.4828s-7.1772,42.7866-19.4179,52.7774a28.6091,28.6091,0,0,1-40.2536-4.0738C391.0689,347.5076,388.0224,323.5183,400.2631,313.5275Z"/><path class="k" d="M0,535.51c0,15.8,20.5111,48.4152,36.3114,48.4152S64.92,551.31,64.92,535.51a28.609,28.609,0,0,0-28.609-28.609C20.5111,506.9008,0,519.71,0,535.51Z"/><path class="d" d="M586.41,267.76H410.2274A26.8179,26.8179,0,0,1,383.41,240.9417V58.577A26.8175,26.8175,0,0,1,410.2274,31.76H539.5927A26.8171,26.8171,0,0,1,566.41,58.577V125.76h13.1827A26.8171,26.8171,0,0,1,606.41,152.577V247.76a20,20,0,0,1-20,20Z"/><path class="l" d="M600.41,254.76H424.2274A26.8179,26.8179,0,0,1,397.41,227.9417V45.577A26.8175,26.8175,0,0,1,424.2274,18.76H553.5927A26.8171,26.8171,0,0,1,580.41,45.577V112.76h13.1827A26.8171,26.8171,0,0,1,620.41,139.577V234.76a20,20,0,0,1-20,20Z"/><rect class="i" x="408.41" y="57.7596" width="126" height="32" rx="9.8059"/><rect class="i" x="408.41" y="114.7596" width="37" height="37" rx="6.3461"/><line class="i" x1="463.41" y1="120.7596" x2="534.41" y2="120.7596"/><line class="i" x1="463.41" y1="144.7596" x2="534.41" y2="144.7596"/><line class="i" x1="408.41" y1="171.7596" x2="534.41" y2="171.7596"/><line class="i" x1="408.41" y1="194.7596" x2="534.41" y2="194.7596"/><line class="i" x1="408.41" y1="217.7596" x2="534.41" y2="217.7596"/><line class="i" x1="408.41" y1="240.7596" x2="481.41" y2="240.7596"/><path class="m" d="M585.91,269.2128a19.5,19.5,0,0,1-19.5-19.5V133.76"/></svg>