<svg xmlns="http://www.w3.org/2000/svg" xmlns:xlink="http://www.w3.org/1999/xlink" viewBox="0 0 1731.5 593.955"><defs><style>.a,.d,.f,.j,.m,.n{fill:none;}.a{stroke:#c630c6;stroke-width:5px;}.a,.m,.n{stroke-miterlimit:10;}.b{fill:#e6e6e6;}.c{fill:url(#a);}.d,.j,.n{stroke:#fff;}.d,.f,.j{stroke-linecap:round;stroke-linejoin:round;}.e{fill:#2e1a54;}.f{stroke:#292d30;}.f,.j,.n{stroke-width:3px;}.g{fill:#292d30;}.h{fill:#34bf8c;opacity:0.22;}.i{opacity:0.54;}.k{fill:url(#b);}.l{fill:url(#c);}.m{stroke:#21be63;}</style><radialGradient id="a" cx="363.9774" cy="347.778" r="400.6015" gradientUnits="userSpaceOnUse"><stop offset="0" stop-color="#fff"/><stop offset="0.2738" stop-color="#bae8d8"/><stop offset="0.5198" stop-color="#83d6b8"/><stop offset="0.7304" stop-color="#5bc9a2"/><stop offset="0.8974" stop-color="#43c194"/><stop offset="1" stop-color="#3abe8f"/></radialGradient><radialGradient id="b" cx="-9461.9414" cy="629.4867" r="68.719" gradientTransform="matrix(0.6323, 0.7747, 0.7747, -0.6323, 6106.3557, 8022.7426)" gradientUnits="userSpaceOnUse"><stop offset="0.1036" stop-color="#efefef"/><stop offset="0.4927" stop-color="#ededed"/><stop offset="0.6694" stop-color="#e6e6e6"/><stop offset="0.8032" stop-color="#d9d9d9"/><stop offset="0.9147" stop-color="#c7c7c7"/><stop offset="1" stop-color="#b3b3b3"/></radialGradient><radialGradient id="c" cx="-13499.7353" cy="572.1705" r="68.719" gradientTransform="translate(13684.1069)" xlink:href="#b"/></defs><title>platform-background</title><path class="a" d="M577,504.76H1683c28.0914-.5,46-18.4086,46-40.5v-347a40,40,0,0,0-40-40H0"/><path class="b" d="M470.4664,116.5864c0,58.34-47.2936,152.9481-105.6332,152.9481S259.2,174.926,259.2,116.5864a105.6332,105.6332,0,0,1,211.2663,0Z"/><path class="c" d="M233.5775,409.48c0-52.4459,58.595-78.455,130.8755-78.455s130.8755,26.0091,130.8755,78.455S436.7336,593.955,364.453,593.955,233.5775,461.9264,233.5775,409.48Z"/><path class="d" d="M244.2344,398.8235c0-52.4459,58.595-78.455,130.8755-78.455s130.8756,26.0091,130.8756,78.455S447.3905,583.2981,375.11,583.2981,244.2344,451.27,244.2344,398.8235Z"/><circle class="e" cx="417.3428" cy="252.4598" r="30.2194"/><circle class="e" cx="436.8332" cy="215.9694" r="21.7098"/><circle class="e" cx="292.8332" cy="215.9694" r="21.7098"/><circle class="e" cx="366.2915" cy="275.6613" r="33.5983"/><circle class="e" cx="314.2915" cy="253.2825" r="30.2194"/><path class="d" d="M449.5854,184.0067a21.7081,21.7081,0,0,0-28.0268,26.7612,30.22,30.22,0,0,0-28.7822,27.1548,33.5911,33.5911,0,0,0-42.9185.7925,30.2211,30.2211,0,0,0-31.0151-27.1363,21.7055,21.7055,0,1,0-24.6812,14.1958A30.2156,30.2156,0,0,0,338.2285,265.72a33.6024,33.6024,0,0,0,67.1358-.11,30.2163,30.2163,0,0,0,43.2836-40.37,21.7091,21.7091,0,0,0,.9375-41.2329Z"/><path class="f" d="M304.3142,146.0985a16.5052,16.5052,0,0,1,33.01,0"/><path class="f" d="M392.3419,146.0985a16.5052,16.5052,0,0,1,33.01,0"/><circle class="g" cx="320.8194" cy="140.0466" r="9.9031"/><circle class="g" cx="408.847" cy="140.0466" r="9.9031"/><path class="f" d="M329.072,216.4023s35.428,14.3573,69.4247,1.9483"/><path class="d" d="M481.47,106.1332c0,58.34-47.2935,152.948-105.6331,152.948s-105.6332-94.6085-105.6332-152.948a105.6332,105.6332,0,1,1,211.2663,0Z"/><rect class="h" x="257.0997" y="110.7871" width="213.467" height="55.0173" rx="16.3172"/><path class="e" d="M470.365,126.192a17.943,17.943,0,0,0-17.753-15.4049H275.0545a17.9429,17.9429,0,0,0-17.753,15.4049Z"/><g class="i"><line class="j" x1="272.5046" y1="137.1954" x2="296.7122" y2="137.1954"/><line class="j" x1="306.6153" y1="137.1954" x2="312.117" y2="137.1954"/><line class="j" x1="321.4699" y1="137.7456" x2="345.6775" y2="137.7456"/><line class="j" x1="355.5806" y1="137.7456" x2="361.0824" y2="137.7456"/><line class="j" x1="370.4353" y1="138.2958" x2="394.6429" y2="138.2958"/><line class="j" x1="404.546" y1="138.2958" x2="410.0477" y2="138.2958"/><line class="j" x1="419.4007" y1="138.8459" x2="443.6083" y2="138.8459"/><line class="j" x1="453.5114" y1="138.8459" x2="459.0131" y2="138.8459"/></g><path class="k" d="M579.353,313.5275c12.2407-9.9908,50.4773-14.7235,60.4681-2.4828s-7.1772,42.7866-19.4179,52.7774a28.6091,28.6091,0,0,1-40.2536-4.0738C570.1588,347.5076,567.1124,323.5183,579.353,313.5275Z"/><path class="l" d="M179.09,535.51c0,15.8,20.5111,48.4152,36.3114,48.4152S244.01,551.31,244.01,535.51a28.6089,28.6089,0,0,0-28.6089-28.609C199.6011,506.9008,179.09,519.71,179.09,535.51Z"/><path class="e" d="M765.5,267.76H589.3174A26.8178,26.8178,0,0,1,562.5,240.9417V58.577A26.8175,26.8175,0,0,1,589.3174,31.76H718.6826A26.8171,26.8171,0,0,1,745.5,58.577V125.76h13.1826A26.8171,26.8171,0,0,1,785.5,152.577V247.76a20,20,0,0,1-20,20Z"/><path class="m" d="M779.5,254.76H603.3174A26.8178,26.8178,0,0,1,576.5,227.9417V45.577A26.8175,26.8175,0,0,1,603.3174,18.76H732.6826A26.8171,26.8171,0,0,1,759.5,45.577V112.76h13.1826A26.8171,26.8171,0,0,1,799.5,139.577V234.76a20,20,0,0,1-20,20Z"/><rect class="j" x="587.5" y="57.7596" width="126" height="32" rx="9.8059"/><rect class="j" x="587.5" y="114.7596" width="37" height="37" rx="6.3461"/><line class="j" x1="642.5" y1="120.7596" x2="713.5" y2="120.7596"/><line class="j" x1="642.5" y1="144.7596" x2="713.5" y2="144.7596"/><line class="j" x1="587.5" y1="171.7596" x2="713.5" y2="171.7596"/><line class="j" x1="587.5" y1="194.7596" x2="713.5" y2="194.7596"/><line class="j" x1="587.5" y1="217.7596" x2="713.5" y2="217.7596"/><line class="j" x1="587.5" y1="240.7596" x2="660.5" y2="240.7596"/><path class="n" d="M765,269.2128a19.5,19.5,0,0,1-19.5-19.5V133.76"/></svg>