<svg xmlns="http://www.w3.org/2000/svg" xmlns:xlink="http://www.w3.org/1999/xlink" viewBox="0 0 679.3207 517.9972"><defs><style>.a{fill:#c630c6;}.b{fill:#2e1a54;}.c,.d,.f,.h,.l{fill:none;}.c{stroke:#21be63;}.c,.f{stroke-miterlimit:10;}.d,.f,.h{stroke:#fff;}.d,.h,.l{stroke-linecap:round;stroke-linejoin:round;}.d,.l{stroke-width:3px;}.e{fill:#21be63;}.f{stroke-width:2px;}.g{fill:url(#a);}.i{fill:url(#b);}.j{fill:url(#c);}.k{fill:url(#d);}.l{stroke:#292d30;}.m{fill:#292d30;}</style><linearGradient id="a" x1="-11453.5515" y1="3385.9938" x2="-11211.3343" y2="3385.9938" gradientTransform="translate(-10963.3604 3131.0093) rotate(-176.7325)" gradientUnits="userSpaceOnUse"><stop offset="0" stop-color="#f05cf2"/><stop offset="0.2941" stop-color="#c448f2"/><stop offset="0.6025" stop-color="#9d36f2"/><stop offset="0.8487" stop-color="#852bf2"/><stop offset="1" stop-color="#7c27f2"/></linearGradient><radialGradient id="b" cx="3509.5976" cy="1906.1873" r="58.6012" gradientTransform="matrix(-0.6398, 0.7685, -0.7685, -0.6398, 4037.1675, -1174.8203)" gradientUnits="userSpaceOnUse"><stop offset="0.1036" stop-color="#efefef"/><stop offset="0.4927" stop-color="#ededed"/><stop offset="0.6694" stop-color="#e6e6e6"/><stop offset="0.8032" stop-color="#d9d9d9"/><stop offset="0.9147" stop-color="#c7c7c7"/><stop offset="1" stop-color="#b3b3b3"/></radialGradient><radialGradient id="c" cx="-13225.5113" cy="2048.2837" r="64.6073" gradientTransform="matrix(0.8321, -0.5546, -0.5546, -0.8321, 12521.6424, -5451.4139)" xlink:href="#b"/><radialGradient id="d" cx="674.1027" cy="-642.117" r="151.9212" gradientTransform="matrix(0.9124, 0.4093, -0.3391, 0.7559, -276.357, 394.4932)" gradientUnits="userSpaceOnUse"><stop offset="0" stop-color="#efefef"/><stop offset="0.3265" stop-color="#ededed"/><stop offset="0.4748" stop-color="#e6e6e6"/><stop offset="0.5871" stop-color="#d9d9d9"/><stop offset="0.6813" stop-color="#c7c7c7"/><stop offset="0.7641" stop-color="#afafaf"/><stop offset="0.839" stop-color="#929292"/><stop offset="0.9078" stop-color="#6f6f6f"/><stop offset="0.9701" stop-color="#494949"/><stop offset="1" stop-color="#333"/></radialGradient></defs><title>student-side</title><rect class="a" y="67.6509" width="373" height="232" rx="40"/><rect class="b" x="155.25" y="19.4009" width="164" height="240" rx="25.019"/><rect class="c" x="165.75" y="8.9009" width="164" height="240" rx="25.019"/><circle class="d" cx="237.25" cy="203.9009" r="15"/><rect class="d" x="181.25" y="100.9009" width="112" height="30" rx="15" transform="translate(121.3491 353.1509) rotate(-90)"/><path class="e" d="M155.792,209.9848q0,20.3379-12.3184,30.7959-12.3179,10.4621-32.2627,10.461h-.1953l-2.9326,23.0722q-14.4726-.5874-14.47-1.3691l2.7373-22.6807a220.2847,220.2847,0,0,1-24.2451-4.1064l-3.9112-.7822,2.542-20.335q15.4438,2.1534,28.5479,2.9326l4.3017-34.0224q-20.1416-6.0572-28.5478-14.6641-8.41-8.6016-8.4072-23.4639,0-19.3578,11.7314-28.8408t32.2627-9.4834h2.542l3.5195-26.9824h14.4688l-3.52,28.1562q12.1217,1.1734,22.29,3.128l3.3242.7822-2.15,20.7266q-14.2764-1.563-26.3965-2.3467l-3.9111,31.4805q20.3336,6.4525,27.668,14.1757Q155.7916,194.3457,155.792,209.9848ZM92.6357,154.063a10.3157,10.3157,0,0,0,2.9327,7.6259q2.934,2.9327,11.3408,6.0616l3.3242-27.1787Q92.6363,141.3554,92.6357,154.063Zm37.15,57.6816a11.3365,11.3365,0,0,0-2.64-7.7236q-2.64-3.0294-9.4824-5.7686l-3.7159,29.916Q129.7861,226.4092,129.7861,211.7446Z"/><circle class="f" cx="110.5" cy="185.1509" r="77.5"/><line class="f" x1="165" y1="239.6509" x2="56" y2="130.6509"/><path class="g" d="M425.54,340.5745c2.7663-48.4532,58.2721-69.3915,125.05-65.5791s119.54,30.9319,116.7736,79.385S603.4989,521.72,536.7212,517.9076,422.7733,389.0276,425.54,340.5745Z"/><path class="h" d="M436.9256,328.3713c2.9162-48.4443,58.4865-69.2108,125.2521-65.1918s119.4436,31.3016,116.5275,79.746S614.3237,510.0667,547.5581,506.0477,434.01,376.8157,436.9256,328.3713Z"/><path class="i" d="M353.6714,319.4616c-10.3554-8.62-42.9217-12.972-51.5422-2.6166s5.7668,36.5445,16.1222,45.165a24.3967,24.3967,0,0,0,34.3589-3.1413C361.2308,348.5133,364.0268,328.0821,353.6714,319.4616Z"/><path class="j" d="M395.6728,210.9032c-8.239-12.3607-9.2-48.5711,3.1609-56.81s39.388,10.597,47.6269,22.9577a26.8972,26.8972,0,0,1-7.4631,37.2991C426.6368,222.5889,403.9117,223.264,395.6728,210.9032Z"/><path class="k" d="M637.1861,144.6812c-2.9642,45.2189-44.4283,116.1469-89.6472,113.1827S470.47,179.166,473.4339,133.947a82.0518,82.0518,0,0,1,163.7522,10.7342Z"/><path class="l" d="M502.16,153.7853a14.5511,14.5511,0,1,1,29.04,1.9036"/><path class="l" d="M579.6,158.8615a14.5511,14.5511,0,0,1,29.04,1.9036"/><circle class="m" cx="517.0293" cy="149.4131" r="8.7306"/><circle class="m" cx="594.4688" cy="154.4893" r="8.7306"/><path class="l" d="M583.8449,190.5012c-.5257,8.0191-13.6484-4.2643-30.7559-5.3857s-31.7214,9.3438-31.1958,1.3247"/><path class="h" d="M646.246,137.1379c-2.9642,45.219-44.4283,116.1469-89.6472,113.1828s-77.0692-78.698-74.1051-123.9169A82.0519,82.0519,0,1,1,646.246,137.1379Z"/><circle class="m" cx="546.7077" cy="56.5223" r="48.7225"/><circle class="m" cx="589.1242" cy="85.14" r="34.669"/><path class="h" d="M603.43,43.6949A48.7136,48.7136,0,1,0,568.0325,96.18,34.6656,34.6656,0,1,0,603.43,43.6949Z"/></svg>