<svg xmlns="http://www.w3.org/2000/svg" xmlns:xlink="http://www.w3.org/1999/xlink" viewBox="0 0 616.3301 576.7529"><defs><style>.a{fill:url(#a);}.b{fill:#2e1a54;}.c{fill:url(#b);}.d,.e,.j{fill:none;stroke-linecap:round;stroke-linejoin:round;}.d,.j,.n{stroke:#fff;}.e{stroke:#292d30;}.e,.j,.n{stroke-width:3px;}.f{fill:#292d30;}.g{fill:#34bf8c;opacity:0.22;}.h{fill:#7c27f2;opacity:0.43;}.i{opacity:0.54;}.k{fill:url(#c);}.l{fill:url(#d);}.m{fill:url(#e);}.n{fill:#c630c6;stroke-miterlimit:10;}</style><radialGradient id="a" cx="233.0631" cy="202.8261" r="175.5811" gradientTransform="translate(54.8457 13.4891) rotate(20.4127) scale(1 0.5684)" gradientUnits="userSpaceOnUse"><stop offset="0" stop-color="#efefef"/><stop offset="0.3165" stop-color="#ededed"/><stop offset="0.4603" stop-color="#e6e6e8"/><stop offset="0.5691" stop-color="#dbd9df"/><stop offset="0.6604" stop-color="#cac7d2"/><stop offset="0.7407" stop-color="#b5afc0"/><stop offset="0.8132" stop-color="#9b92ab"/><stop offset="0.88" stop-color="#7b6f92"/><stop offset="0.9403" stop-color="#584976"/><stop offset="0.9969" stop-color="#301d56"/><stop offset="1" stop-color="#2e1a54"/></radialGradient><radialGradient id="b" cx="172.6723" cy="294.6812" r="286.6098" gradientUnits="userSpaceOnUse"><stop offset="0" stop-color="#fff"/><stop offset="0.3291" stop-color="#eab3ea"/><stop offset="0.9153" stop-color="#c630c6"/></radialGradient><radialGradient id="c" cx="-10584.2187" cy="555.4313" r="67.2588" gradientTransform="matrix(-1, 0, 0, 1, -10184.3398, 0)" gradientUnits="userSpaceOnUse"><stop offset="0.1036" stop-color="#efefef"/><stop offset="0.4927" stop-color="#ededed"/><stop offset="0.6694" stop-color="#e6e6e6"/><stop offset="0.8032" stop-color="#d9d9d9"/><stop offset="0.9147" stop-color="#c7c7c7"/><stop offset="1" stop-color="#b3b3b3"/></radialGradient><radialGradient id="d" cx="-10132.956" cy="1154.8958" r="67.2588" gradientTransform="matrix(-0.9133, 0.4074, -0.4074, -0.9133, -8740.2218, 5375.1497)" xlink:href="#c"/><radialGradient id="e" cx="3899.7951" cy="52.4163" r="235.7288" gradientTransform="matrix(-1, 0, 0, 1, 4374.4772, 0)" gradientUnits="userSpaceOnUse"><stop offset="0" stop-color="#fff"/><stop offset="0.2738" stop-color="#bae8d8"/><stop offset="0.5198" stop-color="#83d6b8"/><stop offset="0.7304" stop-color="#5bc9a2"/><stop offset="0.8974" stop-color="#43c194"/><stop offset="1" stop-color="#3abe8f"/></radialGradient></defs><title>teacher</title><path class="a" d="M323.1308,150.1543c0,52.3734-42.457,137.3066-94.83,137.3066s-94.83-84.9332-94.83-137.3066a94.83,94.83,0,1,1,189.6609,0Z"/><circle class="b" cx="205.5806" cy="55.3238" r="42.4761"/><path class="c" d="M99.2542,396.1981c0-51.3315,57.35-76.7879,128.0946-76.7879s128.0946,25.4564,128.0946,76.7879-57.35,180.5548-128.0946,180.5548S99.2542,447.53,99.2542,396.1981Z"/><path class="d" d="M109.6846,385.7677c0-51.3316,57.35-76.788,128.0946-76.788s128.0947,25.4564,128.0947,76.788-57.35,180.5547-128.0947,180.5547S109.6846,437.0992,109.6846,385.7677Z"/><circle class="b" cx="155.2019" cy="102.7391" r="42.4761"/><circle class="b" cx="269.7887" cy="86.934" r="75.0741"/><path class="e" d="M173.97,184.7279a14.8173,14.8173,0,1,1,29.6345,0"/><path class="e" d="M252.9958,184.7279a14.8173,14.8173,0,1,1,29.6345,0"/><circle class="f" cx="188.7877" cy="179.2949" r="8.8904"/><circle class="f" cx="267.8131" cy="179.2949" r="8.8904"/><path class="e" d="M192.72,242.4577s31.3969,22.435,67.95,1.9069"/><path class="d" d="M333.009,140.77c0,52.3734-42.457,137.3066-94.83,137.3066s-94.83-84.9332-94.83-137.3066a94.83,94.83,0,0,1,189.6609,0Z"/><path class="d" d="M281.6425.5a74.7006,74.7006,0,0,0-37.7909,10.2145,42.4645,42.4645,0,0,0-68.8933,33.25,42.7826,42.7826,0,0,0,.3988,5.7557,42.4772,42.4772,0,1,0,33.9582,45.9666A75.0729,75.0729,0,1,0,281.6425.5Z"/><rect class="g" x="131.5844" y="153.0277" width="191.6365" height="49.3909" rx="16.3172"/><path class="h" d="M323.04,166.8571a16.1079,16.1079,0,0,0-15.9375-13.8294H147.703a16.1079,16.1079,0,0,0-15.9375,13.8294Z"/><g class="i"><line class="j" x1="145.4138" y1="176.7353" x2="167.1458" y2="176.7353"/><line class="j" x1="176.0362" y1="176.7353" x2="180.9752" y2="176.7353"/><line class="j" x1="189.3717" y1="177.2292" x2="211.1037" y2="177.2292"/><line class="j" x1="219.994" y1="177.2292" x2="224.9331" y2="177.2292"/><line class="j" x1="233.3295" y1="177.7231" x2="255.0615" y2="177.7231"/><line class="j" x1="263.9519" y1="177.7231" x2="268.891" y2="177.7231"/><line class="j" x1="277.2874" y1="178.217" x2="299.0194" y2="178.217"/><line class="j" x1="307.9097" y1="178.217" x2="312.8488" y2="178.217"/></g><path class="k" d="M405.0483,519.55c0,15.4645-20.0753,47.3864-35.54,47.3864s-28.001-31.9219-28.001-47.3864a28.0011,28.0011,0,0,1,28.001-28.0011C384.973,491.5485,405.0483,504.085,405.0483,519.55Z"/><path class="l" d="M62.6581,223.1516c-6.3-14.1232-37.6381-35.0979-51.7612-28.798s-12.568,40.56-6.2681,54.6832A28.0011,28.0011,0,0,0,41.6081,263.202C55.7312,256.9021,68.9581,237.2748,62.6581,223.1516Z"/><path class="m" d="M395.9223,177.0157l12.6192-29.8028a48.0331,48.0331,0,0,0,3.4109-25.8755,103.451,103.451,0,0,1-1.1432-17.3474c.9989-55.57,46.7-100.6364,102.279-100.8866a102.7689,102.7689,0,1,1-61.2274,184.9529,48.3755,48.3755,0,0,0-26.6253-9.5385Z"/><rect class="b" x="457.2542" y="50.0824" width="83.5589" height="122.2813" rx="17.5535"/><circle class="j" cx="499.0336" cy="144.0862" r="7.6426"/><rect class="j" x="470.5013" y="91.6071" width="57.0646" height="15.2852" rx="6.5152" transform="translate(399.7839 598.2833) rotate(-90)"/><circle class="n" cx="554.3573" cy="68.1893" r="33.2775"/><polyline class="j" points="570.111 58.301 545.642 82.77 537.319 73.687"/></svg>