<svg xmlns="http://www.w3.org/2000/svg" viewBox="0 0 27.9273 31.9052"><defs><style>.a{fill:#fff;}</style></defs><title>tiktok-icon</title><path class="a" d="M9.42,31.9052c-.0231-.0175-.0453-.0491-.0693-.0506a8.9906,8.9906,0,0,1-2.4243-.5422A9.7406,9.7406,0,0,1,4.2192,29.851,11.6383,11.6383,0,0,1,3.0641,28.87a10.5991,10.5991,0,0,1-1.3657-1.6778,10.1024,10.1024,0,0,1-1.2778-2.764c-.1259-.4319-.21-.8744-.2979-1.3169a11.469,11.469,0,0,1-.1011-2.535A8.1125,8.1125,0,0,1,.21,19.3007a9.87,9.87,0,0,1,.4537-1.5318,9.6306,9.6306,0,0,1,.82-1.6951,10.5014,10.5014,0,0,1,5.91-4.6189,8.5785,8.5785,0,0,1,1.71-.3641c.3576-.0327.7136-.0818,1.0712-.1138a1.2508,1.2508,0,0,1,.6352.0943.9354.9354,0,0,1,.6064.9195q.0015,2.4757-.0006,4.9515a.9417.9417,0,0,1-.8587.96,7.7268,7.7268,0,0,0-1.0939.1627,3.7325,3.7325,0,0,0-1.3669.7526,3.3188,3.3188,0,0,0-1.0734,1.77A3.5893,3.5893,0,0,0,7.8729,23.89a3.781,3.781,0,0,0,.6922.5677,3.5355,3.5355,0,0,0,4.9138-1.1585,3.9561,3.9561,0,0,0,.47-1.23,4.0976,4.0976,0,0,0,.07-.861q.0054-10.0742.0033-20.1484a.9992.9992,0,0,1,.0725-.5156A.9312.9312,0,0,1,14.9611,0c1.65.0046,3.3009.0012,4.9514.0022a.9786.9786,0,0,1,1.0323.9983c.0041.0933.0017.1869.002.28a5.5053,5.5053,0,0,0,.44,1.9731,5.7815,5.7815,0,0,0,.972,1.6053,5.8875,5.8875,0,0,0,1.075.98,5.8877,5.8877,0,0,0,1.6152.83,5.8553,5.8553,0,0,0,1.1358.2643,5.56,5.56,0,0,0,.7388.0475,1.0276,1.0276,0,0,1,.9662.6934.7464.7464,0,0,1,.0358.2418q.0031,2.5226.0011,5.0449a.9458.9458,0,0,1-.94.9465,8.5082,8.5082,0,0,1-.8711-.0116c-.5381-.0675-1.0777-.1151-1.6132-.2208a13.2,13.2,0,0,1-2.07-.5815c-.4429-.1655-.87-.3734-1.3041-.5623-.0458-.02-.0914-.04-.1454-.0644a.6352.6352,0,0,0-.0361.3443c-.002,2.865.0085,5.73-.01,8.5949a11.6964,11.6964,0,0,1-.1592,1.7786,10.4119,10.4119,0,0,1-1.174,3.3593,8.55,8.55,0,0,1-1.2277,1.7388c-.2323.25-.4479.5178-.699.7471-.3421.3124-.7026.6064-1.07.8889a8.6353,8.6353,0,0,1-1.6112.9751,10.0508,10.0508,0,0,1-2.2676.778,6.3911,6.3911,0,0,1-1.1218.1816c-.0231.0005-.0454.0334-.0681.0512Zm.0535-18.9484c-.2531.0488-.4715.0954-.6915.1326A7.8587,7.8587,0,0,0,6.088,14.1136a8.5481,8.5481,0,0,0-2.3916,2.1239A8.1983,8.1983,0,0,0,2.41,18.5862a6.596,6.596,0,0,0-.4059,1.7017c-.0289.3993-.0847.7967-.1092,1.1962a4.1567,4.1567,0,0,0,.0484.4891,6.7625,6.7625,0,0,0,.0575.7075,10.3967,10.3967,0,0,0,.3062,1.3466,8.4367,8.4367,0,0,0,1.1788,2.3673,8.5387,8.5387,0,0,0,1.6313,1.7322,7.8734,7.8734,0,0,0,1.531.9832,8.4289,8.4289,0,0,0,1.4947.5716,6.9073,6.9073,0,0,0,1.8494.2937c.0716-.0005.1433.0122.2149.0183a2.4367,2.4367,0,0,0,.3986.03c.3579-.029.7145-.0732,1.0713-.1145a7.2463,7.2463,0,0,0,1.319-.2886,9.0237,9.0237,0,0,0,1.9637-.8948,9.4187,9.4187,0,0,0,1.5523-1.2232,7.8487,7.8487,0,0,0,.6235-.7277,8.1252,8.1252,0,0,0,1.4141-2.5583,8.27,8.27,0,0,0,.4583-2.7219c.0039-.7475.001-1.495.001-2.2425q0-4.2357-.0017-8.4714a.9967.9967,0,0,1,.1183-.5352.9181.9181,0,0,1,1.2409-.4052,1.9727,1.9727,0,0,1,.217.1184A10.93,10.93,0,0,0,23.029,11.27a10.275,10.275,0,0,0,2.9489.6691V8.8641A8.1235,8.1235,0,0,1,21.3319,6.55a8.0839,8.0839,0,0,1-2.2813-4.6507H15.9059v.3786q0,9.4992-.0014,18.9985a6.47,6.47,0,0,1-.0545,1.05,5.3984,5.3984,0,0,1-.5172,1.606,5.5953,5.5953,0,0,1-1.656,1.9405,5.006,5.006,0,0,1-1.3614.7227,6.3867,6.3867,0,0,1-1.2256.2878,5.3442,5.3442,0,0,1-1.6582-.053,5.5539,5.5539,0,0,1-2.643-1.3261,5.3428,5.3428,0,0,1-1.4358-2.1025,5.2389,5.2389,0,0,1-.3574-1.74,6.5192,6.5192,0,0,1,.0481-.9257,5.2364,5.2364,0,0,1,.4048-1.4477,5.4543,5.4543,0,0,1,1.26-1.7859A5.1485,5.1485,0,0,1,9.053,16.1932c.1456-.0369.287-.09.4206-.133Z"/></svg>