<svg xmlns="http://www.w3.org/2000/svg" viewBox="0 0 31.9268 26.3645"><defs><style>.a{fill:#fff;}</style></defs><title>twitter-icon</title><path class="a" d="M31.9268,3.76v.8091a.591.591,0,0,0-.0574.1041,6.4549,6.4549,0,0,1-.58,1.301,5.212,5.212,0,0,1-1.2958,1.5718c-.1878.1438-.3659.3-.5355.44-.026.2721-.0668.5285-.0722.7856a16.4258,16.4258,0,0,1-.2488,2.2436,18.4893,18.4893,0,0,1-.6619,2.736A19.4976,19.4976,0,0,1,26.65,17.7885a19.1215,19.1215,0,0,1-2.3628,3.1486,16.5,16.5,0,0,1-1.8656,1.736A16.871,16.871,0,0,1,19.7,24.4645a16.1244,16.1244,0,0,1-3.4948,1.366c-.5914.1492-1.1868.2706-1.7915.3615a13.9168,13.9168,0,0,1-1.51.1526c-1.0989.0435-2.1992.0114-3.2977-.0537-.0208-.0012-.0416-.0007-.0623-.0028-.5963-.0588-1.1928-.1157-1.7888-.1777-.39-.0407-.7843-.0674-1.1695-.1386-.6906-.1275-1.38-.2674-2.0624-.4321A12.0526,12.0526,0,0,1,1.64,24.49a10.0813,10.0813,0,0,1-.9931-.6354A2.0455,2.0455,0,0,1,0,22.9282v-.809c.0136-.0148.0343-.0273.04-.0446A1.7274,1.7274,0,0,1,1.767,20.8621,12.9521,12.9521,0,0,0,3.07,20.7877c.3795-.0378.7571-.1028,1.1324-.1721.3-.0553.5963-.1351.8888-.2028-.0025-.04.0007-.0549-.0044-.0588a.6657.6657,0,0,0-.1021-.07,6.1382,6.1382,0,0,1-1.333-.9061,5.6715,5.6715,0,0,1-.6327-.6427,8.0142,8.0142,0,0,1-1.3739-2.4188A1.5,1.5,0,0,1,2.36,14.3092c.0607-.031.1163-.0718.1828-.1135-.2272-.2839-.4634-.5356-.6483-.8206-.27-.4162-.5038-.8561-.7521-1.2863a9.2252,9.2252,0,0,1-.5879-1.4014,1.6558,1.6558,0,0,1-.0389-.9743A1.4728,1.4728,0,0,1,1.7582,8.6014a1.0144,1.0144,0,0,0,.1591-.0468c-.0447-.1217-.0788-.2283-.1224-.3308a6.9449,6.9449,0,0,1-.54-2.1232,7.2206,7.2206,0,0,1,.03-1.5492,6.9671,6.9671,0,0,1,.4636-1.8247,14.1133,14.1133,0,0,1,.74-1.5022A1.0333,1.0333,0,0,1,3.577.8038a1.2824,1.2824,0,0,1,.666.3741c.4141.408.8157.829,1.2392,1.2269.3772.3543.7638.7014,1.17,1.0216A17.2008,17.2008,0,0,0,8.3883,4.63a15.877,15.877,0,0,0,3.0178,1.3871,26.8889,26.8889,0,0,0,2.7184.7645.9942.9942,0,0,0,.1772.01.8555.8555,0,0,0,.0284-.1045A7.1488,7.1488,0,0,1,14.952,4.52a8.2233,8.2233,0,0,1,1.2-1.8788A7.5809,7.5809,0,0,1,20.6226.0975,5.7126,5.7126,0,0,1,22.2654.0334a6.75,6.75,0,0,1,1.8859.4951c.5916.25,1.1756.5189,1.7582.7894a.4835.4835,0,0,0,.4143.0193c.4534-.177.9152-.3329,1.3677-.512q.8814-.3491,1.7528-.7229A1.39,1.39,0,0,1,30.33.0465a1.4543,1.4543,0,0,1,1.0857,1.8053,5.0984,5.0984,0,0,1-.175.4955c-.0488.1319-.1014.2623-.1524.3938a1.5081,1.5081,0,0,1,.693.7151C31.8324,3.556,31.8784,3.6585,31.9268,3.76ZM2.4675,22.7822c.4505.1857.8364.3629,1.2348.5056a19.5788,19.5788,0,0,0,3.8665.8706c.5931.0845,1.1913.1388,1.7888.1848.5163.04,1.035.0671,1.5525.0663a18.8632,18.8632,0,0,0,2.5812-.0527c.45-.0625.9018-.1136,1.3493-.19a12.9374,12.9374,0,0,0,3.384-1.108c.5135-.2448,1.0062-.5362,1.4948-.8289a12.9318,12.9318,0,0,0,2.243-1.7138c.27-.2558.5266-.5261.7932-.7857a12.51,12.51,0,0,0,1.2732-1.4853,16.9088,16.9088,0,0,0,2.0392-3.5478,16.797,16.797,0,0,0,.8185-2.3728,18.0352,18.0352,0,0,0,.492-2.644,16.593,16.593,0,0,0,.1166-1.8859.97.97,0,0,1,.0022-.1554,3.1914,3.1914,0,0,1,.0856-.4862,1.0163,1.0163,0,0,1,.4334-.5506,7.0111,7.0111,0,0,0,.7316-.5237A3.6524,3.6524,0,0,0,29.7512,4.745c-.2064-.0671-.4267-.12-.6313-.2089a1.1057,1.1057,0,0,1-.4657-1.4173c.12-.1932.2316-.392.3458-.589.0323-.0555.0605-.1134.0891-.1674-.8674.3142-1.7174.6129-2.56.9314a1.3224,1.3224,0,0,1-1.1366-.0774,15.6228,15.6228,0,0,0-1.7461-.8174,4.7711,4.7711,0,0,0-2.285-.44c-.2456.0319-.4953.0476-.7355.1034a5.4421,5.4421,0,0,0-1.4168.5406A5.8442,5.8442,0,0,0,16.8354,5.04a6.1206,6.1206,0,0,0-.6692,2.7458,1.1325,1.1325,0,0,1-.22.6666,1.0424,1.0424,0,0,1-1.0594.4345c-.58-.1015-1.156-.2285-1.7285-.366a26.2505,26.2505,0,0,1-2.7053-.8114,17.2123,17.2123,0,0,1-2.6613-1.2A17.7085,17.7085,0,0,1,4.1465,3.775c-.1751-.1695-.3659-.3227-.5642-.4964-.0944.3016-.1926.5744-.2648.854a5.907,5.907,0,0,0-.1314,1.7259A4.3351,4.3351,0,0,0,3.4627,7.22a7.5837,7.5837,0,0,0,1.14,2.0219c.1214.1545.2416.31.3511.4734a1.0284,1.0284,0,0,1,.0276,1.1459,1.0569,1.0569,0,0,1-.9733.5654,2.9716,2.9716,0,0,1-.9822-.27c-.0794-.0291-.1566-.0639-.2853-.1168.1423.2527.2513.4526.3661.6492a8.8107,8.8107,0,0,0,1.4285,1.8326c.3306.326.7077.6051,1.0638.9055.174.1467.3572.2842.5194.4431a1.0583,1.0583,0,0,1,.1833,1.1527,1.179,1.179,0,0,1-1.3351.67,5.5189,5.5189,0,0,1-.9974-.2214.4956.4956,0,0,0-.1427-.0018,4.2771,4.2771,0,0,0,1.0274,1.3982,4.9947,4.9947,0,0,0,2.448,1.2134,5.5113,5.5113,0,0,1,.6593.1759,1.1283,1.1283,0,0,1,.7126.9708,1.1446,1.1446,0,0,1-.6627,1.1037,10.8026,10.8026,0,0,1-1.8311.7743,12.7755,12.7755,0,0,1-2.9126.5867C3.0245,22.711,2.7824,22.7463,2.4675,22.7822Z"/></svg>