<svg xmlns="http://www.w3.org/2000/svg" viewBox="0 0 697.7403 192.0767"><defs><style>.a{fill:#3abe8f;}.b{fill:#2e1a54;}</style></defs><title>videos-title</title><rect class="a" x="576.4617" y="93.725" width="51.2645" height="116.2018" rx="25.6322" transform="translate(281.1828 -389.6161) rotate(45)"/><circle class="a" cx="672.7461" cy="24.9942" r="24.9942"/><path class="b" d="M26.3613,73.0791H6.4375v-59.16H26.3613a41.5646,41.5646,0,0,1,12.6133,1.61,15.045,15.045,0,0,1,7.7012,5.3066,21.9227,21.9227,0,0,1,3.7832,8.6993A65.7123,65.7123,0,0,1,51.5039,42.542a76.3161,76.3161,0,0,1-.957,13.2676,25.6909,25.6909,0,0,1-3.6114,9.3955,15.042,15.042,0,0,1-7.6992,6.0039A37.5215,37.5215,0,0,1,26.3613,73.0791Zm12.6133-23.49q.1758-2.7833.1758-7.6993a70.3831,70.3831,0,0,0-.35-7.874,15.0579,15.0579,0,0,0-1.6524-5.3935,6.8832,6.8832,0,0,0-3.8711-3.35,21.2316,21.2316,0,0,0-6.916-.9131H18.4434V62.6387h7.9179q6.5244,0,9.4825-3.3057Q38.3662,56.6376,38.9746,49.5889Z" transform="translate(-2.5234 -8.3402)"/><path class="b" d="M94.2188,43.15V61.2471a6.928,6.928,0,0,0,.6972,2.915A3.2276,3.2276,0,0,0,97.09,65.3359l-.3476,8.7871a32.93,32.93,0,0,1-7.09-.6093,15.9487,15.9487,0,0,1-5.3515-2.4356A28.963,28.963,0,0,1,71.5117,74.123q-13.4853,0-13.4844-14.2675,0-6.9611,3.74-9.875T73.252,46.5439l9.3085-.6962V43.15q0-2.6953-1.2167-3.6973a6.1686,6.1686,0,0,0-3.9161-1l-16.3554.6953-.3477-8.09A67.7183,67.7183,0,0,1,78.43,28.5352q8.3936,0,12.0918,3.48T94.2188,43.15ZM74.6445,54.6348q-4.875.4365-4.873,5.2207,0,4.7841,4.2637,4.7851a28.1666,28.1666,0,0,0,7.2207-1.0449l1.3046-.3477V53.94Z" transform="translate(-2.5234 -8.3402)"/><path class="b" d="M105.877,73.0791V12.18h11.6582V73.0791Z" transform="translate(-2.5234 -8.3402)"/><path class="b" d="M140.5449,62.0742a8.6584,8.6584,0,0,0,5.8711,1.7832q8.0917,0,14.4434-.5224l2.4355-.2608.1739,8.6133A77.2466,77.2466,0,0,1,145.373,74.123q-9.8319,0-14.2675-5.22-4.4385-5.2193-4.4375-16.9658,0-23.4024,19.2265-23.4023,18.9669,0,18.9668,19.6621l-.8711,8.0908H138.4121Q138.5,60.2915,140.5449,62.0742Zm12.8321-14.66q0-5.2208-1.6524-7.2647-1.6552-2.0434-5.7871-2.0439t-5.8281,2.1308q-1.6963,2.1329-1.7832,7.1778Z" transform="translate(-2.5234 -8.3402)"/><path class="b" d="M218.0156,29.5791h11.6582v43.5h-11.57V70.6426q-6.2637,3.48-10.875,3.48-9.05,0-12.18-5.0019-3.1318-5.0025-3.1328-16.7481V29.5791h11.6582V52.5469q0,6.4393,1.0449,8.7871,1.0431,2.35,5.045,2.35a21.1936,21.1936,0,0,0,7.2207-1.2188l1.1308-.3476Z" transform="translate(-2.5234 -8.3402)"/><path class="b" d="M252.1191,73.0791H240.4609v-43.5h11.5723v2.4365q5.9151-3.48,10.875-3.48,8.6982,0,12.0059,5.1328,3.3046,5.1342,3.3066,15.834V73.0791H266.5625V49.85q0-5.5664-1.3047-8.2207-1.3066-2.6543-5.2207-2.6543a19.7064,19.7064,0,0,0-6.873,1.2188l-1.045.3476Z" transform="translate(-2.5234 -8.3402)"/><path class="b" d="M321.8926,43.15V61.2471a6.928,6.928,0,0,0,.6972,2.915,3.2276,3.2276,0,0,0,2.1739,1.1738l-.3477,8.7871a32.9292,32.9292,0,0,1-7.09-.6093,15.9483,15.9483,0,0,1-5.3516-2.4356,28.963,28.963,0,0,1-12.7891,3.0449q-13.4853,0-13.4843-14.2675,0-6.9611,3.74-9.875t11.4844-3.4366l9.3086-.6962V43.15q0-2.6953-1.2168-3.6973a6.1685,6.1685,0,0,0-3.916-1l-16.3555.6953-.3477-8.09a67.7183,67.7183,0,0,1,17.7051-2.5234q8.3936,0,12.0918,3.48T321.8926,43.15ZM302.3184,54.6348q-4.875.4365-4.8731,5.2207,0,4.7841,4.2637,4.7851a28.1666,28.1666,0,0,0,7.2207-1.0449l1.3047-.3477V53.94Z" transform="translate(-2.5234 -8.3402)"/><path class="b" d="M363.8242,73.0791H352.166v-43.5h11.5723v2.4365q6.0029-3.48,10.2656-3.48,7.046,0,10.875,4.0888,8.0039-4.0884,14.6152-4.0888,8.6133,0,11.9629,5.0019,3.3487,5.0038,3.35,15.9649V73.0791H403.1484V49.85q0-5.5664-1.2168-8.2207-1.2216-2.6543-4.873-2.6543a23.9956,23.9956,0,0,0-6.7852,1.2188l-1.3046.4345q.3456,6.5259.3476,9.918V73.0791H377.6582V50.7207q0-6.438-1.1309-9.0918t-4.9589-2.6543a19.2339,19.2339,0,0,0-6.6993,1.2188l-1.0449.3476Z" transform="translate(-2.5234 -8.3402)"/><path class="b" d="M425.1582,24.0117V12.18h11.6582v11.832Zm0,49.0674v-43.5h11.6582v43.5Z" transform="translate(-2.5234 -8.3402)"/><path class="b" d="M447.6035,73.0791v-43.5h11.5723v4.61a44.2958,44.2958,0,0,1,13.92-5.6543V40.28q-7.0488,1.481-12.0937,3.0449l-1.74.6084V73.0791Z" transform="translate(-2.5234 -8.3402)"/><path class="b" d="M513.2891,43.15V61.2471a6.9318,6.9318,0,0,0,.6953,2.915,3.2275,3.2275,0,0,0,2.1758,1.1738l-.3477,8.7871a32.949,32.949,0,0,1-7.0918-.6093,15.94,15.94,0,0,1-5.35-2.4356A28.9694,28.9694,0,0,1,490.582,74.123q-13.4853,0-13.4843-14.2675,0-6.9611,3.74-9.875,3.7383-2.9136,11.4844-3.4366l9.3086-.6962V43.15q0-2.6953-1.2188-3.6973a6.1622,6.1622,0,0,0-3.9141-1l-16.3554.6953-.35-8.09a67.74,67.74,0,0,1,17.705-2.5234q8.3966,0,12.0938,3.48T513.2891,43.15ZM493.7129,54.6348q-4.8721.4365-4.8711,5.2207t4.2637,4.7851a28.1787,28.1787,0,0,0,7.2207-1.0449l1.3047-.3477V53.94Z" transform="translate(-2.5234 -8.3402)"/><path class="b" d="M561.3984,12.18V73.0791h-11.57V71.252q-6.0907,2.871-10.5273,2.871-9.4834,0-13.2246-5.48t-3.74-17.3574q0-11.8741,4.4805-17.3125,4.4794-5.4362,13.5293-5.4375a47.9919,47.9919,0,0,1,7.7422.87l1.6523.3476V12.18Zm-12.875,50.459,1.2168-.2608V39.4971a48.33,48.33,0,0,0-8.5254-.87q-7.0458,0-7.0468,12.5283,0,6.7866,1.5664,9.6572a5.4319,5.4319,0,0,0,5.1758,2.8711A30.1858,30.1858,0,0,0,548.5234,62.6387Z" transform="translate(-2.5234 -8.3402)"/><path class="b" d="M605.5078,43.15V61.2471a6.9333,6.9333,0,0,0,.6953,2.915,3.228,3.228,0,0,0,2.1758,1.1738l-.3476,8.7871a32.949,32.949,0,0,1-7.0918-.6093,15.94,15.94,0,0,1-5.35-2.4356,28.9686,28.9686,0,0,1-12.789,3.0449q-13.4854,0-13.4844-14.2675,0-6.9611,3.74-9.875,3.7383-2.9136,11.4844-3.4366l9.3086-.6962V43.15q0-2.6953-1.2187-3.6973a6.1622,6.1622,0,0,0-3.9141-1l-16.3555.6953-.35-8.09a67.7409,67.7409,0,0,1,17.7051-2.5234q8.3965,0,12.0937,3.48T605.5078,43.15ZM585.9316,54.6348q-4.872.4365-4.8711,5.2207t4.2637,4.7851a28.1781,28.1781,0,0,0,7.2207-1.0449l1.3047-.3477V53.94Z" transform="translate(-2.5234 -8.3402)"/><path class="b" d="M38.7148,112.15v18.0967a6.933,6.933,0,0,0,.6954,2.915,3.2275,3.2275,0,0,0,2.1757,1.1738l-.3476,8.7871a32.949,32.949,0,0,1-7.0918-.6093,15.94,15.94,0,0,1-5.35-2.4356,28.9694,28.9694,0,0,1-12.7891,3.0449q-13.4853,0-13.4844-14.2675,0-6.9611,3.74-9.875,3.7383-2.9136,11.4843-3.4366l9.3086-.6962V112.15q0-2.6954-1.2187-3.6973a6.1622,6.1622,0,0,0-3.9141-1l-16.3554.6953-.35-8.09a67.74,67.74,0,0,1,17.705-2.5234q8.3965,0,12.0938,3.48T38.7148,112.15ZM19.1387,123.6348q-4.8722.4365-4.8711,5.2207t4.2637,4.7851a28.1787,28.1787,0,0,0,7.2207-1.0449l1.3046-.3477V122.94Z" transform="translate(-2.5234 -8.3402)"/><path class="b" d="M80.6465,142.0791H68.9883v-43.5h11.57v2.4365q6.0029-3.48,10.2676-3.48,7.0458,0,10.875,4.0888,8.001-4.0884,14.6152-4.0888,8.6133,0,11.9629,5.0019,3.3486,5.0039,3.35,15.9649v23.5771H119.9707V118.85q0-5.5663-1.2187-8.2207t-4.8711-2.6543a24.017,24.017,0,0,0-6.7871,1.2188l-1.3047.4345q.3456,6.5259.3476,9.918v22.5332H94.4785V119.7207q0-6.438-1.1308-9.0918t-4.959-2.6543a19.2412,19.2412,0,0,0-6.6992,1.2188l-1.043.3476Z" transform="translate(-2.5234 -8.3402)"/><path class="b" d="M141.9805,93.0117V81.18h11.6582v11.832Zm0,49.0674v-43.5h11.6582v43.5Z" transform="translate(-2.5234 -8.3402)"/><path class="b" d="M208.4473,142.0791H196.44V118.1543L178.17,82.9189h13.3106l10.875,23.5772,10.875-23.5772H226.543l-18.0957,35.2354Z" transform="translate(-2.5234 -8.3402)"/><path class="b" d="M228.3711,103.4941q4.6084-5.9574,15.3984-5.9589,10.7871,0,15.3985,5.9589,4.6113,5.9621,4.6113,16.7481,0,22.8824-20.01,22.8808-20.0127,0-20.01-22.8808Q223.76,109.4551,228.3711,103.4941Zm9.0039,26.5791q1.7813,3.1318,6.3945,3.1319,4.6114,0,6.3946-3.1319,1.7813-3.1332,1.7832-9.831,0-6.6987-1.7832-9.7442-1.7842-3.0438-6.3946-3.0449t-6.3945,3.0449q-1.7843,3.0469-1.7832,9.7442Q235.5918,126.9424,237.375,130.0732Z" transform="translate(-2.5234 -8.3402)"/><path class="b" d="M297.9688,98.5791H309.627v43.5h-11.57v-2.4365q-6.2636,3.48-10.875,3.48-9.05,0-12.18-5.0019-3.1318-5.0025-3.1329-16.7481V98.5791h11.6582v22.9678q0,6.4394,1.045,8.7871,1.043,2.35,5.0449,2.35a21.1932,21.1932,0,0,0,7.2207-1.2188l1.1309-.3476Z" transform="translate(-2.5234 -8.3402)"/><path class="b" d="M344.5137,108.4971H333.8125V126.332a35.8816,35.8816,0,0,0,.1309,3.6973A3,3,0,0,0,334.9,131.9a3.6258,3.6258,0,0,0,2.5664.7832l6.6113-.1738.5235,9.3086a44.3739,44.3739,0,0,1-8.875,1.3046q-7.8282,0-10.7012-3.5234-2.8711-3.5244-2.8711-13.0058V108.4971h-5.1328v-9.918h5.1328V86.4863h11.6582V98.5791h10.7012Z" transform="translate(-2.5234 -8.3402)"/><path class="b" d="M377.748,98.5791h11.6583v43.5h-11.57v-2.4365q-6.2665,3.48-10.875,3.48-9.05,0-12.1816-5.0019t-3.1309-16.7481V98.5791h11.6582v22.9678q0,6.4394,1.043,8.7871,1.0459,2.35,5.0469,2.35a21.2011,21.2011,0,0,0,7.2207-1.2188l1.1308-.3476Z" transform="translate(-2.5234 -8.3402)"/><path class="b" d="M421.248,97.5352q9.1348,0,13.3536,5.0019,4.2188,5.0039,4.2207,17.8789,0,12.876-4.8731,17.791t-16.791,4.916q-3.7412,0-13.6582-.87l-3.3066-.3476V81.18h11.6582V99.8848A25.1423,25.1423,0,0,1,421.248,97.5352Zm-4.09,35.1484q5.8272,0,7.83-2.8281,2.001-2.8257,2.0019-10.1348,0-11.7451-7.3086-11.7461a24.611,24.611,0,0,0-6.6132.8711l-1.2168.26v23.23Q415.8506,132.6836,417.1582,132.6836Z" transform="translate(-2.5234 -8.3402)"/><path class="b" d="M459.2227,131.0742a8.6581,8.6581,0,0,0,5.8711,1.7832q8.0917,0,14.4433-.5224l2.4356-.2608.1738,8.6133a77.2459,77.2459,0,0,1-18.0957,2.4355q-9.832,0-14.2676-5.22-4.4385-5.2192-4.4375-16.9658,0-23.4024,19.2266-23.4023,18.9667,0,18.9668,19.6621l-.8711,8.0908H457.09Q457.1777,129.2915,459.2227,131.0742Zm12.832-14.66q0-5.2208-1.6524-7.2647-1.6552-2.0435-5.7871-2.0439t-5.8281,2.1308q-1.6962,2.1328-1.7832,7.1778Z" transform="translate(-2.5234 -8.3402)"/></svg>