<svg xmlns="http://www.w3.org/2000/svg" viewBox="0 0 31.8705 24.1831"><defs><style>.a{fill:#fff;}</style></defs><title>youtube-icon</title><path class="a" d="M0,8.6052a.4589.4589,0,0,0,.0519-.131C.06,8.35.0525,8.2253.0578,8.101.0784,7.6166.08,7.13.1321,6.6489c.0315-.2881.0258-.5769.06-.8619.0388-.3242.1158-.6442.1821-.9647a7.8817,7.8817,0,0,1,.5492-1.693,4.3892,4.3892,0,0,1,.7124-1.1117A4.7429,4.7429,0,0,1,2.9634.9641,5.1388,5.1388,0,0,1,4.5321.44C5.0015.3636,5.4722.347,5.9432.308,6.325.2765,6.7086.2994,7.0853.2511,7.4978.1981,7.9141.2419,8.32.1859,8.7961.12,9.27.1682,9.7433.1325,10.6.0677,11.4612.115,12.3164.0613c1.2837-.0807,2.5667-.03,3.85-.049.85-.0123,1.702-.0242,2.5511.0112.8788.0366,1.7595.012,2.6353.0686.6.0389,1.2.0007,1.7957.0554.4332.04.8692.0142,1.2969.0668.3515.0432.7063-.0014,1.0484.0591.429.0758.8609.0322,1.291.0951A9.3533,9.3533,0,0,1,28.1085.63a4.7232,4.7232,0,0,1,1.2973.6349,5.2964,5.2964,0,0,1,.6254.5031,3.7455,3.7455,0,0,1,.7051.8959,7.1422,7.1422,0,0,1,.76,2.1345,8.2464,8.2464,0,0,1,.1945,1.4937c.0083.3885.0714.7758.11,1.1637.002.0206.0013.0414.002.0621.0218.64.06,1.28.0623,1.92q.0122,2.8314-.001,5.6628c-.0023.5467-.0227,1.0947-.0668,1.64-.0449.5536-.0834,1.1076-.1278,1.6609a8.5736,8.5736,0,0,1-.24,1.2333,7.0567,7.0567,0,0,1-.5578,1.5949,4.64,4.64,0,0,1-1.9911,2.007,5.5089,5.5089,0,0,1-1.36.482c-.1981.0479-.4084.0433-.61.0781-.41.0706-.8267.0252-1.2342.0735-.3718.0441-.7452.01-1.1109.06-.3921.0536-.7866.0112-1.1732.0614-.64.0831-1.2834.0036-1.92.062-.8892.0816-1.78.0058-2.6669.0629-1.5323.0986-3.0656.0683-4.5961.0312-.9514-.023-1.9052.0127-2.8532-.057-.6518-.0479-1.3046.0031-1.951-.0609-.5378-.0533-1.0764-.0035-1.6089-.06-.4233-.0452-.8455-.03-1.2672-.0578-.4092-.0266-.8172-.0749-1.2253-.118a6.6617,6.6617,0,0,1-2.5057-.6864,3.5216,3.5216,0,0,1-.7981-.5791,5.7224,5.7224,0,0,1-.6533-.696A4.5616,4.5616,0,0,1,.69,20.5432c-.1706-.5246-.3038-1.0624-.43-1.6a3.8354,3.8354,0,0,1-.0743-.7352c-.0169-.4732-.0694-.9424-.1154-1.413C.0385,16.466.0615,16.1318.0525,15.8A1.1138,1.1138,0,0,0,0,15.5755ZM16.723,22.2268c.7664-.0387,1.8948.0515,3.0226-.0471.6991-.0611,1.4038.0125,2.1072-.06.6046-.0627,1.2176.0161,1.8264-.0662.3663-.05.7392-.0118,1.1115-.0567.4381-.0529.8846-.0308,1.3281-.0658a7.0691,7.0691,0,0,0,1.3374-.19,2.5673,2.5673,0,0,0,1.6817-1.346c.07-.1367.1215-.2833.18-.4261a6.957,6.957,0,0,0,.4174-1.6013c.0761-.5071.096-1.0231.1287-1.5359.0248-.3908.03-.7825.0525-1.1738.0467-.8041.0409-1.6116.0634-2.4177.03-1.0851.0271-2.172-.0389-3.2584-.052-.856-.0518-1.7152-.0748-2.573-.0008-.0311,0-.0624-.0035-.0932-.0378-.3776-.0989-.7545-.1093-1.1327a6.3008,6.3008,0,0,0-.3856-1.8911,2.891,2.891,0,0,0-.3753-.8067,3.0005,3.0005,0,0,0-1.7114-1.0989,11.9,11.9,0,0,0-1.5265-.1781c-.3568-.0425-.7188-.0126-1.08-.0586-.3969-.05-.8014-.02-1.204-.0626-.5222-.055-1.05-.0141-1.5778-.0607-.6884-.0608-1.3825-.0205-2.0755-.061-1.2081-.0708-2.4207.021-3.6317-.0633a16.2082,16.2082,0,0,0-1.64.0454c-.9717.0317-1.9435-.0267-2.9166.0511-.74.0592-1.4876-.0007-2.2309.0694-.4409.0415-.8846-.0046-1.33.0545-.4165.0552-.8433.0383-1.2657.0633-.6166.0365-1.2333.0535-1.8473.1337a3.1433,3.1433,0,0,0-1.7564.8246A3.2567,3.2567,0,0,0,2.3743,4.74,5.7338,5.7338,0,0,0,2.1088,6.25c-.0061.378-.0836.7543-.1065,1.1328-.0237.3907-.0276.7819-.0568,1.1736-.0537.7207-.0348,1.4459-.0552,2.1689-.03,1.0532-.0367,2.1088.0254,3.1653.0546.9276.0224,1.8609.0809,2.79.0052.0827,0,.1662.0066.2487.0165.2045.0371.4087.056.6131.02.2146.0355.43.0608.6438.0275.2338.0517.4692.0994.6993a8.8329,8.8329,0,0,0,.3388,1.18A2.5087,2.5087,0,0,0,4.3462,21.67a11.3559,11.3559,0,0,0,2.0335.3027c.3575.0383.7193.0226,1.08.0594.4812.0491.9676.015,1.4534.0612.6364.0606,1.2785.01,1.92.06.8751.0683,1.756.014,2.6357.0615C14.4309,22.2669,15.3977,22.2268,16.723,22.2268Z"/><path class="a" d="M13.2171,16.8883a1.3365,1.3365,0,0,1-1.3216-.9967,1.58,1.58,0,0,1-.0164-.4335q-.0012-2.535,0-5.07c0-.8294-.0023-1.6589.002-2.4883A1.2814,1.2814,0,0,1,12.86,6.668a1.2264,1.2264,0,0,1,.92.1133c.6433.3479,1.2838.7012,1.9257,1.0517.2714.1481.5441.2937.8153.4422q1.26.69,2.5206,1.3809.8142.444,1.6331.8794a1.4873,1.4873,0,0,1,.8309,1.0456,1.1883,1.1883,0,0,1-.2342.9854,1.6258,1.6258,0,0,1-.57.4685q-.5893.3081-1.1758.6216-1.3362.7142-2.6709,1.4312c-.4355.2344-.8671.476-1.3022.711q-.8706.47-1.7444.9344A1.0779,1.0779,0,0,1,13.2171,16.8883Zm.5562-2.3069c.2749-.1534.5245-.2976.7785-.4336q1.4583-.7809,2.9188-1.5574c.3547-.1891.7115-.3743,1.0649-.5658.1308-.0709.2545-.1549.3909-.2387-.5476-.3554-4.9172-2.7187-5.1531-2.7867Z"/></svg>