<svg xmlns="http://www.w3.org/2000/svg" viewBox="0 0 412.2712 251.0609"><defs><style>.a{fill:#3abe8f;}.b{fill:#d137d1;}.c{fill:#392262;}</style></defs><title>youtube-3d</title><circle class="a" cx="308.9621" cy="24.9942" r="24.9942"/><rect class="a" x="36.7088" y="111.1735" width="51.2645" height="155.0927" rx="25.6322" transform="translate(151.7043 11.193) rotate(45)"/><rect class="a" x="302.541" y="37.2622" width="51.2645" height="216.6306" rx="25.6322" transform="translate(199.0586 -189.4149) rotate(45)"/><path class="b" d="M74.9378,62.1382c2.835-11.2728,9.2779-19.4285,20.4785-23.3238,8.3414-2.901,17.0888-4.1066,25.7033-5.8629,9.1931-1.8744,18.4937-3.0871,27.7594-4.4919q16.7055-2.5327,33.52-4.3171c10.9152-1.1669,21.7935-2.7042,32.7216-3.7163,8.7557-.8108,17.5073-1.6834,26.3066-2.1422,9.0051-.47,17.9963-1.0322,27.0181-1.091,8.2914-.0541,16.04,1.5409,22.7869,6.7034a41.27,41.27,0,0,1,10.9016,12.896c5.99,10.6753,9.605,22.2609,13.3078,33.8224,5.3644,16.749,10.8283,33.467,16.0592,50.2575a101.44,101.44,0,0,1,4.9509,25.837c.4665,11.1288-3.9952,21.4549-16.0759,26.5062-13.1593,5.5024-26.7586,9.8019-40.3368,14.1378a3.364,3.364,0,0,1-.8622.0438c-1.2124.2278-2.4485.3678-3.6317.6976q-10.5042,2.9289-20.9873,5.9338c-19.0543,5.4508-38.4875,9.3772-57.6762,14.2954-9.2058,2.3595-18.6282,3.8478-27.9817,5.5942a254.8443,254.8443,0,0,1-31.72,4.2447,33.9553,33.9553,0,0,1-23.222-7.2185c-6.9265-5.31-11.0926-12.7443-14.1882-20.79a334.1821,334.1821,0,0,1-12.2484-39.73c-4.6816-18.8916-8.8486-37.87-11-57.26C75.375,82.8376,74.0523,72.5539,74.9378,62.1382ZM180.5457,76.7593c-1.3374,2.7412-2.94,5.164-1.9067,8.7108,2.9755,10.2165,5.487,20.568,8.1754,30.8679q4.6992,18.0036,9.39,36.0094c.6165,2.3635,1.5094,2.7218,3.5239,1.2546a27.9874,27.9874,0,0,0,3.0761-2.7563c7.3372-7.2292,14.6346-14.4989,21.9929-21.7065,6.8438-6.7035,13.7513-13.342,20.6195-20.0207.8809-.8566,1.7938-1.7312,1.6349-3.1436,1.0548-1.8771,2.9273-2.9593,4.3774-4.4525,2.1385-2.2022,1.984-3.1228-.9073-4.2928-13.0935-5.2986-26.5947-9.52-39.5567-15.1908-7.17-3.137-14.6478-5.573-21.9954-8.3021-5.0873-1.8894-5.2569-1.8164-8.3165,2.8331C180.6134,76.63,180.5814,76.6961,180.5457,76.7593Z"/><path class="c" d="M74.9378,62.1382c-.8855,10.4157.4372,20.6994,1.583,31.0266,2.1514,19.39,6.3184,38.3681,11,57.26a334.1821,334.1821,0,0,0,12.2484,39.73c3.0956,8.0456,7.2617,15.48,14.1882,20.79a33.9553,33.9553,0,0,0,23.222,7.2185,254.8443,254.8443,0,0,0,31.72-4.2447c9.3535-1.7464,18.7759-3.2347,27.9817-5.5942,19.1887-4.9182,38.6219-8.8446,57.6762-14.2954q10.4845-2.9993,20.9873-5.9338c1.1832-.33,2.4193-.47,3.6317-.6976-9.0772,2.8388-18.1966,5.5307-27.3468,8.1349-14.6855,4.1795-29.4893,7.9065-44.2164,11.9178-12.537,3.4146-25.2348,6.0476-37.9293,8.7067-10.1694,2.13-20.3642,4.244-30.69,5.47-6.83.8108-13.6784,2.1692-20.6162.7324A32.2,32.2,0,0,1,97.79,209.1172a54.1245,54.1245,0,0,1-5.9351-11.8545c-2.1536-5.633-4.0761-11.3429-5.85-17.1118a458.8683,458.8683,0,0,1-12.991-55.56A264.3472,264.3472,0,0,1,68.98,88.0025,38.2107,38.2107,0,0,1,71.3515,72.164C72.674,68.873,73.7508,65.4835,74.9378,62.1382Z"/><path class="c" d="M180.5457,76.7593q9.0444,34.65,18.0906,69.3c.9519,3.6447,1.5392,3.8937,4.6824,1.8041,3.9675-2.6376,7.0263-6.2918,10.4113-9.567,10.7612-10.4121,21.4243-20.9255,32.1324-31.3925a13.1546,13.1546,0,0,1,1.1894-.9289c.1588,1.4124-.7541,2.287-1.635,3.1436-6.8682,6.6787-13.7757,13.3172-20.6195,20.0207-7.3583,7.2076-14.6557,14.4773-21.9929,21.7065a27.9874,27.9874,0,0,1-3.0761,2.7563c-2.0145,1.4672-2.9074,1.1089-3.5239-1.2546q-4.6963-18.0043-9.39-36.0094c-2.6884-10.3-5.2-20.6514-8.1754-30.8679C177.6059,81.9233,179.2083,79.5005,180.5457,76.7593Z"/></svg>